<svg width="284" height="34" viewBox="0 0 284 34" fill="none" xmlns="http://www.w3.org/2000/svg">
<path opacity="0.6" d="M46.1768 3.84961C47.458 3.84972 48.4502 4.8211 48.4502 6.12305C48.4502 7.0737 47.9328 7.83812 47.1475 8.18945C47.9328 8.54079 48.4502 9.30615 48.4502 10.2568C48.45 11.2073 47.9327 11.972 47.1475 12.3232C47.9328 12.6746 48.4501 13.439 48.4502 14.3896C48.4502 15.4229 47.83 16.2497 46.9414 16.5391C47.83 16.8078 48.3672 17.5315 48.3672 18.5234C48.3671 19.5152 47.8298 20.2381 46.9414 20.5068C47.83 20.7962 48.4501 21.6231 48.4502 22.6562C48.4502 23.6069 47.9328 24.3723 47.1475 24.7236C47.9328 25.075 48.4502 25.8394 48.4502 26.79C48.4502 27.7407 47.9328 28.5051 47.1475 28.8564C47.9328 29.2078 48.4502 29.9731 48.4502 30.9238C48.45 32.2255 47.4579 33.1962 46.1768 33.1963C44.8955 33.1963 43.9035 32.2256 43.9033 30.9238C43.9033 29.9731 44.4197 29.2078 45.2051 28.8564C44.4198 28.5051 43.9033 27.7406 43.9033 26.79C43.9033 25.8394 44.4199 25.075 45.2051 24.7236C44.4197 24.3723 43.9033 23.6069 43.9033 22.6562C43.9034 21.7471 44.3989 20.9822 45.1221 20.6309H29.374C30.0973 20.9822 30.5936 21.747 30.5938 22.6562C30.5938 23.6069 30.0772 24.3723 29.292 24.7236C30.0771 25.0751 30.5938 25.8395 30.5938 26.79C30.5937 27.7405 30.0771 28.505 29.292 28.8564C30.0772 29.2078 30.5938 29.9732 30.5938 30.9238C30.5935 32.2256 29.6015 33.1963 28.3203 33.1963C27.0391 33.1963 26.0471 32.2256 26.0469 30.9238C26.0469 29.9732 26.5634 29.2078 27.3486 28.8564C26.5635 28.5051 26.0469 27.7406 26.0469 26.79C26.0469 25.8395 26.5635 25.075 27.3486 24.7236C26.5633 24.3723 26.0469 23.6069 26.0469 22.6562C26.047 21.6231 26.6671 20.7961 27.5557 20.5068C26.6671 20.2382 26.13 19.5153 26.1299 18.5234C26.1299 17.5314 26.667 16.8077 27.5557 16.5391C26.667 16.2497 26.0469 15.423 26.0469 14.3896C26.0469 13.4391 26.5635 12.6746 27.3486 12.3232C26.5635 11.9719 26.047 11.2072 26.0469 10.2568C26.0469 9.30621 26.5634 8.54082 27.3486 8.18945C26.5635 7.83806 26.0469 7.07358 26.0469 6.12305C26.0469 4.82103 27.039 3.84961 28.3203 3.84961C29.6016 3.84964 30.5938 4.82105 30.5938 6.12305C30.5937 7.07353 30.0771 7.83804 29.292 8.18945C30.0772 8.54084 30.5938 9.30625 30.5938 10.2568C30.5936 11.2072 30.0771 11.9719 29.292 12.3232C30.0771 12.6746 30.5937 13.4392 30.5938 14.3896C30.5938 15.299 30.0974 16.0637 29.374 16.415H45.1221C44.3989 16.0636 43.9033 15.2988 43.9033 14.3896C43.9034 13.4391 44.4199 12.6746 45.2051 12.3232C44.4199 11.972 43.9035 11.2073 43.9033 10.2568C43.9033 9.30616 44.4197 8.54079 45.2051 8.18945C44.4198 7.83809 43.9033 7.07363 43.9033 6.12305C43.9033 4.82103 44.8954 3.84961 46.1768 3.84961ZM69.1299 12.1162C70.4112 12.1162 71.4033 13.0876 71.4033 14.3896C71.4033 15.3402 70.8868 16.1047 70.1016 16.4561C70.8868 16.8073 71.4032 17.572 71.4033 18.5225C71.4033 19.5558 70.7832 20.3825 69.8945 20.6719C70.7832 20.9405 71.3213 21.6642 71.3213 22.6562C71.3213 23.6483 70.7832 24.372 69.8945 24.6406C70.7832 24.93 71.4033 25.7567 71.4033 26.79C71.4032 27.7405 70.8868 28.5051 70.1016 28.8564C70.8868 29.2078 71.4032 29.9723 71.4033 30.9229C71.4033 32.2249 70.4112 33.1963 69.1299 33.1963C67.8487 33.1961 66.8564 32.2248 66.8564 30.9229C66.8565 29.9723 67.3739 29.2078 68.1592 28.8564C67.3739 28.5051 66.8566 27.7406 66.8564 26.79C66.8564 25.8807 67.3529 25.116 68.0762 24.7646H55.3037C56.0271 25.116 56.5234 25.8807 56.5234 26.79C56.5233 27.7404 56.0068 28.5051 55.2217 28.8564C56.0068 29.2078 56.5234 29.9724 56.5234 30.9229C56.5234 32.2248 55.5313 33.1963 54.25 33.1963C52.9686 33.1963 51.9766 32.2249 51.9766 30.9229C51.9766 29.9724 52.4932 29.2078 53.2783 28.8564C52.4932 28.5051 51.9767 27.7405 51.9766 26.79C51.9766 25.7567 52.5967 24.93 53.4854 24.6406C52.5967 24.372 52.0596 23.6483 52.0596 22.6562C52.0596 21.6642 52.5967 20.9405 53.4854 20.6719C52.5967 20.3825 51.9766 19.5558 51.9766 18.5225C51.9767 17.572 52.4932 16.8074 53.2783 16.4561C52.4932 16.1047 51.9766 15.3401 51.9766 14.3896C51.9766 13.0876 52.9686 12.1162 54.25 12.1162C55.5313 12.1162 56.5234 13.0877 56.5234 14.3896C56.5234 15.3401 56.0068 16.1047 55.2217 16.4561C56.0067 16.8074 56.5233 17.5721 56.5234 18.5225C56.5234 19.4318 56.0271 20.1965 55.3037 20.5479H68.0762C67.3529 20.1965 66.8564 19.4318 66.8564 18.5225C66.8566 17.572 67.3739 16.8073 68.1592 16.4561C67.3739 16.1047 66.8565 15.3403 66.8564 14.3896C66.8564 13.0877 67.8487 12.1164 69.1299 12.1162ZM97.168 3.84961C98.4493 3.84964 99.4414 4.82105 99.4414 6.12305C99.4414 7.03237 98.945 7.79711 98.2217 8.14844H100.082C101.446 8.14847 102.335 8.99617 102.335 10.2568C102.335 11.5172 101.446 12.3642 100.082 12.3643H98.2217C98.945 12.7156 99.4414 13.4804 99.4414 14.3896C99.4414 15.3401 98.9247 16.1046 98.1396 16.4561C98.9249 16.8074 99.4414 17.5728 99.4414 18.5234C99.4413 19.4739 98.9247 20.2385 98.1396 20.5898C98.9247 20.9412 99.4413 21.7058 99.4414 22.6562C99.4414 23.6069 98.9249 24.3723 98.1396 24.7236C98.9247 25.0751 99.4414 25.8395 99.4414 26.79C99.4414 27.7405 98.9247 28.505 98.1396 28.8564C98.9249 29.2078 99.4414 29.9732 99.4414 30.9238C99.4412 32.2256 98.4491 33.1963 97.168 33.1963C95.8868 33.1963 94.8948 32.2256 94.8945 30.9238C94.8945 29.9732 95.411 29.2078 96.1963 28.8564C95.4111 28.5051 94.8946 27.7406 94.8945 26.79C94.8945 25.8395 95.4111 25.075 96.1963 24.7236C95.411 24.3723 94.8945 23.6069 94.8945 22.6562C94.8947 21.7058 95.4111 20.9412 96.1963 20.5898C95.4111 20.2385 94.8946 19.4739 94.8945 18.5234C94.8945 17.5728 95.411 16.8074 96.1963 16.4561C95.4112 16.1046 94.8945 15.3402 94.8945 14.3896C94.8946 13.3564 95.5147 12.5296 96.4033 12.2402C95.5148 11.9716 94.9777 11.2486 94.9775 10.2568C94.9775 9.26482 95.5146 8.54113 96.4033 8.27246C95.5147 7.98313 94.8946 7.15637 94.8945 6.12305C94.8945 4.82103 95.8866 3.84961 97.168 3.84961ZM115.024 3.84961C116.306 3.84972 117.298 4.8211 117.298 6.12305C117.298 7.0737 116.78 7.83812 115.995 8.18945C116.78 8.54079 117.298 9.30615 117.298 10.2568C117.298 11.2073 116.78 11.972 115.995 12.3232C116.78 12.6746 117.298 13.439 117.298 14.3896C117.298 15.3403 116.78 16.1047 115.995 16.4561C116.78 16.8074 117.298 17.5728 117.298 18.5234C117.298 19.474 116.78 20.2385 115.995 20.5898C116.78 20.9411 117.298 21.7057 117.298 22.6562C117.298 23.6895 116.678 24.5163 115.789 24.8057C116.678 25.0744 117.215 25.7981 117.215 26.79C117.215 27.782 116.678 28.5057 115.789 28.7744C116.678 29.0638 117.298 29.8906 117.298 30.9238C117.298 32.2255 116.306 33.1962 115.024 33.1963C113.743 33.1963 112.751 32.2256 112.751 30.9238C112.751 30.0147 113.247 29.2499 113.97 28.8984H112.11C110.746 28.8984 109.857 28.0507 109.857 26.79C109.857 25.5294 110.746 24.6816 112.11 24.6816H113.97C113.247 24.3302 112.751 23.5654 112.751 22.6562C112.751 21.7058 113.268 20.9412 114.053 20.5898C113.268 20.2385 112.751 19.474 112.751 18.5234C112.751 17.5728 113.267 16.8074 114.053 16.4561C113.268 16.1047 112.751 15.3402 112.751 14.3896C112.751 13.4391 113.268 12.6746 114.053 12.3232C113.268 11.972 112.751 11.2073 112.751 10.2568C112.751 9.30616 113.267 8.54079 114.053 8.18945C113.268 7.83809 112.751 7.07363 112.751 6.12305C112.751 4.82103 113.743 3.84961 115.024 3.84961ZM134.936 4.01465C136.3 4.01465 137.188 4.86236 137.188 6.12305C137.188 7.38353 136.299 8.23047 134.936 8.23047H124.147C124.871 8.58178 125.367 9.34661 125.367 10.2559C125.367 11.2065 124.851 11.9719 124.065 12.3232C124.85 12.6747 125.367 13.4392 125.367 14.3896C125.367 15.2989 124.871 16.0637 124.147 16.415H134.936C136.299 16.415 137.188 17.262 137.188 18.5225C137.188 19.7831 136.3 20.6309 134.936 20.6309H133.076C133.799 20.9822 134.295 21.747 134.295 22.6562C134.295 23.9583 133.303 24.9297 132.021 24.9297C130.74 24.9295 129.748 23.9582 129.748 22.6562C129.748 21.7469 130.244 20.9822 130.968 20.6309H124.147C124.871 20.9822 125.367 21.7469 125.367 22.6562C125.367 23.6067 124.851 24.3712 124.065 24.7227C124.851 25.074 125.367 25.8394 125.367 26.79C125.367 27.7404 124.851 28.5051 124.065 28.8564C124.851 29.2078 125.367 29.9724 125.367 30.9229C125.367 32.2248 124.375 33.1963 123.094 33.1963C121.812 33.1963 120.82 32.2249 120.82 30.9229C120.82 29.9724 121.337 29.2078 122.122 28.8564C121.337 28.5051 120.82 27.7405 120.82 26.79C120.82 25.8394 121.337 25.074 122.122 24.7227C121.337 24.3712 120.82 23.6068 120.82 22.6562C120.82 21.6229 121.44 20.7962 122.329 20.5068C121.44 20.2382 120.903 19.5145 120.903 18.5225C120.903 17.5307 121.441 16.8077 122.329 16.5391C121.44 16.2497 120.82 15.4229 120.82 14.3896C120.82 13.4391 121.337 12.6747 122.122 12.3232C121.337 11.9719 120.82 11.2065 120.82 10.2559C120.82 9.22261 121.44 8.39576 122.329 8.10645C121.441 7.83781 120.903 7.11488 120.903 6.12305C120.903 4.86248 121.791 4.01482 123.155 4.01465H134.936ZM137.974 28.6494C139.255 28.6494 140.247 29.6209 140.247 30.9229C140.247 32.2249 139.255 33.1963 137.974 33.1963C136.692 33.1961 135.7 32.2248 135.7 30.9229C135.7 29.621 136.692 28.6496 137.974 28.6494ZM183.872 12.1162C185.153 12.1162 186.146 13.0876 186.146 14.3896C186.145 15.3402 185.629 16.1047 184.844 16.4561C185.629 16.8073 186.145 17.572 186.146 18.5225C186.146 19.5558 185.525 20.3825 184.637 20.6719C185.525 20.9405 186.063 21.6642 186.063 22.6562C186.063 23.6483 185.525 24.372 184.637 24.6406C185.525 24.93 186.146 25.7567 186.146 26.79C186.145 27.7405 185.629 28.5051 184.844 28.8564C185.629 29.2078 186.145 29.9723 186.146 30.9229C186.146 32.2249 185.153 33.1963 183.872 33.1963C182.591 33.1961 181.599 32.2248 181.599 30.9229C181.599 29.9723 182.116 29.2078 182.901 28.8564C182.116 28.5051 181.599 27.7406 181.599 26.79C181.599 25.8807 182.095 25.116 182.818 24.7646H170.046C170.769 25.116 171.266 25.8807 171.266 26.79C171.265 27.7404 170.749 28.5051 169.964 28.8564C170.749 29.2078 171.266 29.9724 171.266 30.9229C171.266 32.2248 170.274 33.1963 168.992 33.1963C167.711 33.1963 166.719 32.2249 166.719 30.9229C166.719 29.9724 167.235 29.2078 168.021 28.8564C167.235 28.5051 166.719 27.7405 166.719 26.79C166.719 25.7567 167.339 24.93 168.228 24.6406C167.339 24.372 166.802 23.6483 166.802 22.6562C166.802 21.6642 167.339 20.9405 168.228 20.6719C167.339 20.3825 166.719 19.5558 166.719 18.5225C166.719 17.572 167.235 16.8074 168.021 16.4561C167.235 16.1047 166.719 15.3401 166.719 14.3896C166.719 13.0876 167.711 12.1162 168.992 12.1162C170.274 12.1162 171.266 13.0877 171.266 14.3896C171.266 15.3401 170.749 16.1047 169.964 16.4561C170.749 16.8074 171.265 17.5721 171.266 18.5225C171.266 19.4318 170.769 20.1965 170.046 20.5479H182.818C182.095 20.1965 181.599 19.4318 181.599 18.5225C181.599 17.572 182.116 16.8073 182.901 16.4561C182.116 16.1047 181.599 15.3403 181.599 14.3896C181.599 13.0877 182.591 12.1164 183.872 12.1162ZM232.681 4.01465C234.044 4.0148 234.933 4.86247 234.933 6.12305C234.932 7.38342 234.044 8.23032 232.681 8.23047H224.868C225.591 8.58178 226.088 9.34661 226.088 10.2559C226.088 11.2065 225.57 11.9719 224.785 12.3232C225.57 12.6746 226.088 13.439 226.088 14.3896C226.088 15.3403 225.57 16.1047 224.785 16.4561C225.57 16.8073 226.088 17.572 226.088 18.5225C226.088 19.4731 225.57 20.2385 224.785 20.5898C225.57 20.9412 226.088 21.7056 226.088 22.6562C226.088 23.6069 225.57 24.3713 224.785 24.7227C225.57 25.074 226.088 25.8394 226.088 26.79C226.088 27.7406 225.57 28.5051 224.785 28.8564C225.57 29.2078 226.088 29.9723 226.088 30.9229C226.088 32.2248 225.096 33.1961 223.814 33.1963C222.533 33.1963 221.541 32.2249 221.541 30.9229C221.541 29.9723 222.058 29.2078 222.843 28.8564C222.058 28.5051 221.541 27.7406 221.541 26.79C221.541 25.8394 222.057 25.074 222.843 24.7227C222.058 24.3713 221.541 23.6069 221.541 22.6562C221.541 21.7056 222.058 20.9412 222.843 20.5898C222.057 20.2385 221.541 19.4731 221.541 18.5225C221.541 17.572 222.058 16.8073 222.843 16.4561C222.058 16.1047 221.541 15.3402 221.541 14.3896C221.541 13.439 222.058 12.6746 222.843 12.3232C222.057 11.9719 221.541 11.2065 221.541 10.2559C221.541 9.3467 222.037 8.58183 222.76 8.23047H214.948C213.584 8.23047 212.695 7.38353 212.695 6.12305C212.695 4.86236 213.584 4.01465 214.948 4.01465H232.681ZM278.584 4.01465C279.948 4.01465 280.837 4.86236 280.837 6.12305C280.837 7.38353 279.948 8.23047 278.584 8.23047H267.796C268.519 8.58178 269.016 9.34661 269.016 10.2559C269.016 11.2065 268.499 11.9719 267.714 12.3232C268.499 12.6747 269.016 13.4392 269.016 14.3896C269.016 15.2989 268.519 16.0637 267.796 16.415H278.584C279.948 16.415 280.837 17.262 280.837 18.5225C280.837 19.7831 279.948 20.6309 278.584 20.6309H276.725C277.448 20.9822 277.943 21.747 277.943 22.6562C277.943 23.9583 276.951 24.9297 275.67 24.9297C274.389 24.9295 273.396 23.9582 273.396 22.6562C273.396 21.7469 273.893 20.9822 274.616 20.6309H267.796C268.519 20.9822 269.016 21.7469 269.016 22.6562C269.016 23.6067 268.499 24.3712 267.714 24.7227C268.499 25.074 269.016 25.8394 269.016 26.79C269.016 27.7404 268.499 28.5051 267.714 28.8564C268.499 29.2078 269.016 29.9724 269.016 30.9229C269.016 32.2249 268.024 33.1963 266.742 33.1963C265.461 33.1963 264.469 32.2249 264.469 30.9229C264.469 29.9724 264.985 29.2078 265.771 28.8564C264.985 28.5051 264.469 27.7405 264.469 26.79C264.469 25.8394 264.985 25.074 265.771 24.7227C264.985 24.3712 264.469 23.6068 264.469 22.6562C264.469 21.6229 265.089 20.7962 265.978 20.5068C265.089 20.2382 264.552 19.5145 264.552 18.5225C264.552 17.5307 265.089 16.8077 265.978 16.5391C265.089 16.2497 264.469 15.4229 264.469 14.3896C264.469 13.4391 264.985 12.6747 265.771 12.3232C264.985 11.9719 264.469 11.2065 264.469 10.2559C264.469 9.22261 265.089 8.39576 265.978 8.10645C265.089 7.83781 264.552 7.11488 264.552 6.12305C264.552 4.86249 265.44 4.01482 266.804 4.01465H278.584ZM281.622 28.6494C282.903 28.6494 283.895 29.6209 283.896 30.9229C283.896 32.2249 282.903 33.1963 281.622 33.1963C280.341 33.1961 279.349 32.2248 279.349 30.9229C279.349 29.621 280.341 28.6496 281.622 28.6494ZM17.2168 28.8154C18.5806 28.8155 19.4696 29.6623 19.4697 30.9229C19.4697 32.1835 18.5807 33.0312 17.2168 33.0312H8.41211C7.04829 33.0311 6.16016 32.1834 6.16016 30.9229C6.16026 29.6624 7.04837 28.8156 8.41211 28.8154H17.2168ZM89.041 4.01465C90.4049 4.01478 91.293 4.86246 91.293 6.12305C91.2928 7.38344 90.4047 8.23034 89.041 8.23047H84.2051C84.9282 8.58184 85.4237 9.34672 85.4238 10.2559C85.4238 11.2065 84.9074 11.9719 84.1221 12.3232C84.9073 12.6746 85.4238 13.4391 85.4238 14.3896C85.4238 15.3402 84.9073 16.1047 84.1221 16.4561C84.9073 16.8074 85.4237 17.572 85.4238 18.5225C85.4238 19.4731 84.9074 20.2385 84.1221 20.5898C84.9073 20.9412 85.4238 21.7057 85.4238 22.6562C85.4238 23.6068 84.9073 24.3713 84.1221 24.7227C84.9074 25.074 85.4238 25.8394 85.4238 26.79C85.4237 27.6991 84.9282 28.4641 84.2051 28.8154H89.041C90.4048 28.8156 91.2929 29.6624 91.293 30.9229C91.293 32.1834 90.4049 33.0311 89.041 33.0312H77.2607C75.8967 33.0312 75.0078 32.1835 75.0078 30.9229C75.0079 29.6623 75.8968 28.8154 77.2607 28.8154H82.0967C81.3734 28.4641 80.8771 27.6992 80.877 26.79C80.877 25.8394 81.3943 25.074 82.1797 24.7227C81.3943 24.3713 80.877 23.6069 80.877 22.6562C80.877 21.7056 81.3943 20.9412 82.1797 20.5898C81.3943 20.2385 80.877 19.4731 80.877 18.5225C80.8771 17.572 81.3945 16.8073 82.1797 16.4561C81.3944 16.1047 80.877 15.3403 80.877 14.3896C80.877 13.439 81.3943 12.6746 82.1797 12.3232C81.3943 11.9719 80.877 11.2065 80.877 10.2559C80.877 9.34661 81.3734 8.58178 82.0967 8.23047H77.2607C75.8969 8.23047 75.008 7.38353 75.0078 6.12305C75.0078 4.86236 75.8967 4.01465 77.2607 4.01465H89.041ZM160.861 4.01465C162.225 4.01473 163.114 4.86242 163.114 6.12305C163.114 7.38347 162.225 8.23039 160.861 8.23047H147.097C147.82 8.58178 148.316 9.34661 148.316 10.2559C148.316 11.2065 147.8 11.9719 147.015 12.3232C147.8 12.6747 148.316 13.4392 148.316 14.3896C148.316 15.2989 147.82 16.0637 147.097 16.415H157.885C159.249 16.415 160.137 17.262 160.138 18.5225C160.138 19.7831 159.249 20.6309 157.885 20.6309H147.097C147.82 20.9822 148.316 21.7469 148.316 22.6562C148.316 23.6067 147.8 24.3712 147.015 24.7227C147.8 25.074 148.316 25.8394 148.316 26.79C148.316 27.6992 147.82 28.4641 147.097 28.8154H160.861C162.225 28.8155 163.114 29.6624 163.114 30.9229C163.114 32.1835 162.225 33.0312 160.861 33.0312H146.104C144.741 33.0311 143.853 32.1834 143.853 30.9229C143.853 29.931 144.39 29.2081 145.278 28.9395C144.39 28.6501 143.77 27.8232 143.77 26.79C143.77 25.8394 144.286 25.074 145.071 24.7227C144.286 24.3712 143.77 23.6068 143.77 22.6562C143.77 21.6229 144.39 20.7962 145.278 20.5068C144.39 20.2382 143.853 19.5145 143.853 18.5225C143.853 17.5307 144.39 16.8077 145.278 16.5391C144.39 16.2497 143.77 15.4229 143.77 14.3896C143.77 13.4391 144.286 12.6747 145.071 12.3232C144.286 11.9719 143.77 11.2065 143.77 10.2559C143.77 9.22261 144.39 8.39576 145.278 8.10645C144.39 7.83781 143.853 7.11488 143.853 6.12305C143.853 4.86248 144.741 4.01482 146.104 4.01465H160.861ZM206.76 28.8154C208.124 28.8155 209.013 29.6624 209.013 30.9229C209.013 32.1835 208.124 33.0312 206.76 33.0312H197.955C196.591 33.0311 195.703 32.1834 195.703 30.9229C195.703 29.6624 196.591 28.8156 197.955 28.8154H206.76ZM252.654 28.8154C254.018 28.8155 254.907 29.6623 254.907 30.9229C254.907 32.1835 254.018 33.0312 252.654 33.0312H243.85C242.486 33.0311 241.598 32.1834 241.598 30.9229C241.598 29.6624 242.486 28.8156 243.85 28.8154H252.654ZM5.37402 24.5166C6.65538 24.5166 7.64746 25.488 7.64746 26.79C7.64728 28.0919 6.65526 29.0635 5.37402 29.0635C4.09298 29.0633 3.10077 28.0917 3.10059 26.79C3.10059 25.4882 4.09286 24.5168 5.37402 24.5166ZM20.2549 24.5166C21.5361 24.5167 22.5283 25.4881 22.5283 26.79C22.5281 28.0918 21.536 29.0634 20.2549 29.0635C18.9736 29.0635 17.9816 28.0919 17.9814 26.79C17.9814 25.488 18.9735 24.5166 20.2549 24.5166ZM134.998 24.5166C136.279 24.5167 137.271 25.4881 137.271 26.79C137.271 28.0918 136.279 29.0634 134.998 29.0635C133.717 29.0635 132.725 28.0919 132.725 26.79C132.725 25.488 133.717 24.5166 134.998 24.5166ZM194.917 24.5166C196.198 24.5166 197.19 25.488 197.19 26.79C197.19 28.0919 196.198 29.0635 194.917 29.0635C193.636 29.0633 192.644 28.0918 192.644 26.79C192.644 25.4881 193.636 24.5168 194.917 24.5166ZM209.798 24.5166C211.079 24.5167 212.071 25.4881 212.071 26.79C212.071 28.0918 211.079 29.0634 209.798 29.0635C208.517 29.0635 207.525 28.0919 207.524 26.79C207.524 25.488 208.516 24.5166 209.798 24.5166ZM240.812 24.5166C242.093 24.5166 243.085 25.488 243.085 26.79C243.085 28.0919 242.093 29.0635 240.812 29.0635C239.53 29.0633 238.538 28.0917 238.538 26.79C238.538 25.4882 239.53 24.5168 240.812 24.5166ZM255.692 24.5166C256.974 24.5167 257.966 25.4881 257.966 26.79C257.966 28.0918 256.974 29.0634 255.692 29.0635C254.411 29.0635 253.419 28.0919 253.419 26.79C253.419 25.488 254.411 24.5166 255.692 24.5166ZM278.646 24.5166C279.928 24.5167 280.92 25.4881 280.92 26.79C280.92 28.0918 279.928 29.0634 278.646 29.0635C277.365 29.0635 276.373 28.0919 276.373 26.79C276.373 25.488 277.365 24.5166 278.646 24.5166ZM2.39844 12.1162C3.67976 12.1162 4.67188 13.0877 4.67188 14.3896C4.67181 15.3401 4.1552 16.1047 3.37012 16.4561C4.15519 16.8074 4.67172 17.5721 4.67188 18.5225C4.67188 19.473 4.15533 20.2385 3.37012 20.5898C4.15521 20.9413 4.67186 21.7058 4.67188 22.6562C4.67188 23.9582 3.67976 24.9297 2.39844 24.9297C1.11708 24.9297 0.125 23.9583 0.125 22.6562C0.125011 21.7057 0.641599 20.9412 1.42676 20.5898C0.64148 20.2385 0.125 19.4731 0.125 18.5225C0.125153 17.572 0.641624 16.8074 1.42676 16.4561C0.641607 16.1047 0.12506 15.3401 0.125 14.3896C0.125 13.0876 1.11708 12.1162 2.39844 12.1162ZM109.072 20.3828C110.353 20.3829 111.346 21.3545 111.346 22.6562C111.346 23.9582 110.354 24.9296 109.072 24.9297C107.791 24.9297 106.799 23.9583 106.799 22.6562C106.799 21.3544 107.791 20.3828 109.072 20.3828ZM191.941 12.1162C193.223 12.1162 194.215 13.0877 194.215 14.3896C194.215 15.3401 193.698 16.1047 192.913 16.4561C193.698 16.8074 194.215 17.5721 194.215 18.5225C194.215 19.473 193.698 20.2385 192.913 20.5898C193.698 20.9413 194.215 21.7058 194.215 22.6562C194.215 23.9582 193.223 24.9297 191.941 24.9297C190.66 24.9297 189.668 23.9583 189.668 22.6562C189.668 21.7057 190.185 20.9412 190.97 20.5898C190.184 20.2385 189.668 19.4731 189.668 18.5225C189.668 17.572 190.185 16.8074 190.97 16.4561C190.185 16.1047 189.668 15.3401 189.668 14.3896C189.668 13.0876 190.66 12.1162 191.941 12.1162ZM237.836 12.1162C239.117 12.1162 240.109 13.0876 240.109 14.3896C240.109 15.3401 239.593 16.1047 238.808 16.4561C239.593 16.8074 240.109 17.5721 240.109 18.5225C240.109 19.473 239.593 20.2385 238.808 20.5898C239.593 20.9413 240.109 21.7058 240.109 22.6562C240.109 23.9583 239.117 24.9297 237.836 24.9297C236.555 24.9297 235.562 23.9583 235.562 22.6562C235.563 21.7057 236.079 20.9412 236.864 20.5898C236.079 20.2385 235.562 19.4731 235.562 18.5225C235.563 17.572 236.079 16.8074 236.864 16.4561C236.079 16.1047 235.563 15.3401 235.562 14.3896C235.562 13.0876 236.555 12.1162 237.836 12.1162ZM258.668 12.1162C259.949 12.1162 260.941 13.0876 260.941 14.3896C260.941 15.3402 260.425 16.1047 259.64 16.4561C260.425 16.8073 260.941 17.572 260.941 18.5225C260.941 19.4731 260.425 20.2385 259.64 20.5898C260.425 20.9412 260.941 21.7057 260.941 22.6562C260.941 23.9583 259.949 24.9297 258.668 24.9297C257.387 24.9296 256.395 23.9582 256.395 22.6562C256.395 21.7056 256.912 20.9412 257.697 20.5898C256.912 20.2385 256.395 19.4731 256.395 18.5225C256.395 17.572 256.912 16.8073 257.697 16.4561C256.912 16.1047 256.395 15.3403 256.395 14.3896C256.395 13.0877 257.387 12.1163 258.668 12.1162ZM106.096 16.25C107.377 16.25 108.369 17.2214 108.369 18.5234C108.369 19.8253 107.377 20.7969 106.096 20.7969C104.815 20.7967 103.822 19.8252 103.822 18.5234C103.822 17.2215 104.815 16.2502 106.096 16.25ZM103.12 12.1162C104.401 12.1163 105.393 13.0877 105.394 14.3896C105.394 15.6916 104.401 16.663 103.12 16.6631C101.839 16.6631 100.847 15.6917 100.847 14.3896C100.847 13.0877 101.839 12.1162 103.12 12.1162ZM137.974 7.98242C139.255 7.98242 140.247 8.95395 140.247 10.2559C140.247 11.2065 139.731 11.9719 138.945 12.3232C139.731 12.6746 140.247 13.4391 140.247 14.3896C140.247 15.6916 139.255 16.6631 137.974 16.6631C136.692 16.6629 135.7 15.6915 135.7 14.3896C135.7 13.439 136.218 12.6746 137.003 12.3232C136.218 11.9719 135.7 11.2065 135.7 10.2559C135.7 8.95404 136.692 7.98256 137.974 7.98242ZM281.622 7.98242C282.903 7.98242 283.895 8.95395 283.896 10.2559C283.896 11.2065 283.379 11.9719 282.594 12.3232C283.379 12.6746 283.896 13.439 283.896 14.3896C283.895 15.6916 282.903 16.6631 281.622 16.6631C280.341 16.6629 279.349 15.6915 279.349 14.3896C279.349 13.439 279.866 12.6746 280.651 12.3232C279.866 11.9719 279.349 11.2065 279.349 10.2559C279.349 8.95405 280.341 7.98257 281.622 7.98242ZM5.37402 7.98242C6.6553 7.98242 7.64735 8.95395 7.64746 10.2559C7.64746 11.5579 6.65538 12.5293 5.37402 12.5293C4.09286 12.5291 3.10059 11.5577 3.10059 10.2559C3.1007 8.95408 4.09293 7.98262 5.37402 7.98242ZM20.2549 7.98242C21.5361 7.98253 22.5282 8.95403 22.5283 10.2559C22.5283 11.5578 21.5361 12.5292 20.2549 12.5293C18.9735 12.5293 17.9814 11.5579 17.9814 10.2559C17.9816 8.95395 18.9736 7.98242 20.2549 7.98242ZM57.2256 7.98242C58.5069 7.98242 59.4989 8.95395 59.499 10.2559C59.499 11.5579 58.5069 12.5293 57.2256 12.5293C55.9444 12.5291 54.9521 11.5577 54.9521 10.2559C54.9523 8.95408 55.9445 7.98262 57.2256 7.98242ZM66.1543 7.98242C67.4355 7.98251 68.4276 8.95401 68.4277 10.2559C68.4277 11.5578 67.4356 12.5292 66.1543 12.5293C64.8729 12.5293 63.8809 11.5579 63.8809 10.2559C63.881 8.95395 64.873 7.98242 66.1543 7.98242ZM171.968 7.98242C173.249 7.98242 174.241 8.95395 174.241 10.2559C174.241 11.5579 173.249 12.5293 171.968 12.5293C170.687 12.5291 169.694 11.5578 169.694 10.2559C169.694 8.95408 170.687 7.98262 171.968 7.98242ZM180.896 7.98242C182.178 7.98251 183.17 8.95401 183.17 10.2559C183.17 11.5578 182.178 12.5292 180.896 12.5293C179.615 12.5293 178.623 11.5579 178.623 10.2559C178.623 8.95395 179.615 7.98242 180.896 7.98242ZM194.917 7.98242C196.198 7.98242 197.19 8.95395 197.19 10.2559C197.19 11.5579 196.198 12.5293 194.917 12.5293C193.636 12.5291 192.644 11.5578 192.644 10.2559C192.644 8.95408 193.636 7.98261 194.917 7.98242ZM209.798 7.98242C211.079 7.98254 212.071 8.95403 212.071 10.2559C212.071 11.5578 211.079 12.5292 209.798 12.5293C208.516 12.5293 207.524 11.5579 207.524 10.2559C207.525 8.95395 208.517 7.98242 209.798 7.98242ZM240.812 7.98242C242.093 7.98242 243.085 8.95395 243.085 10.2559C243.085 11.5579 242.093 12.5293 240.812 12.5293C239.53 12.5291 238.538 11.5577 238.538 10.2559C238.538 8.95409 239.53 7.98263 240.812 7.98242ZM255.692 7.98242C256.974 7.98253 257.966 8.95402 257.966 10.2559C257.966 11.5578 256.974 12.5292 255.692 12.5293C254.411 12.5293 253.419 11.5579 253.419 10.2559C253.419 8.95395 254.411 7.98242 255.692 7.98242ZM17.2168 4.01465C18.5807 4.01473 19.4697 4.86242 19.4697 6.12305C19.4696 7.38348 18.5806 8.23039 17.2168 8.23047H8.41211C7.04842 8.23032 6.16033 7.38342 6.16016 6.12305C6.16016 4.86247 7.04829 4.0148 8.41211 4.01465H17.2168ZM63.1162 4.01465C64.4802 4.0147 65.3691 4.8624 65.3691 6.12305C65.369 7.38349 64.48 8.23041 63.1162 8.23047H60.2637C58.9 8.23032 58.0119 7.38342 58.0117 6.12305C58.0117 4.86247 58.8999 4.0148 60.2637 4.01465H63.1162ZM177.858 4.01465C179.222 4.0147 180.111 4.8624 180.111 6.12305C180.111 7.38349 179.222 8.23041 177.858 8.23047H175.006C173.642 8.23033 172.754 7.38343 172.754 6.12305C172.754 4.86247 173.642 4.01479 175.006 4.01465H177.858ZM206.76 4.01465C208.124 4.01473 209.013 4.86242 209.013 6.12305C209.013 7.38347 208.124 8.23039 206.76 8.23047H197.955C196.591 8.23033 195.703 7.38343 195.703 6.12305C195.703 4.86247 196.591 4.01479 197.955 4.01465H206.76ZM252.654 4.01465C254.018 4.01472 254.907 4.86242 254.907 6.12305C254.907 7.38348 254.018 8.23039 252.654 8.23047H243.85C242.486 8.23031 241.598 7.38342 241.598 6.12305C241.598 4.86247 242.486 4.0148 243.85 4.01465H252.654Z" fill="black"/>
</svg>
